<svg id="mermaid-svg" width="100%" xmlns="http://www.w3.org/2000/svg" style="max-width: 583.9375px;" viewBox="-125.9375 -34.70000076293945 583.9375 190.66708374023438" role="graphics-document document" aria-roledescription="gitGraph" xmlns:xlink="http://www.w3.org/1999/xlink"><style xmlns="http://www.w3.org/1999/xhtml">@import url("https://cdnjs.cloudflare.com/ajax/libs/font-awesome/6.7.2/css/all.min.css");</style><style>#mermaid-svg{font-family:"trebuchet ms",verdana,arial,sans-serif;font-size:16px;fill:#ccc;}@keyframes edge-animation-frame{from{stroke-dashoffset:0;}}@keyframes dash{to{stroke-dashoffset:0;}}#mermaid-svg .edge-animation-slow{stroke-dasharray:9,5!important;stroke-dashoffset:900;animation:dash 50s linear infinite;stroke-linecap:round;}#mermaid-svg .edge-animation-fast{stroke-dasharray:9,5!important;stroke-dashoffset:900;animation:dash 20s linear infinite;stroke-linecap:round;}#mermaid-svg .error-icon{fill:#a44141;}#mermaid-svg .error-text{fill:#ddd;stroke:#ddd;}#mermaid-svg .edge-thickness-normal{stroke-width:1px;}#mermaid-svg .edge-thickness-thick{stroke-width:3.5px;}#mermaid-svg .edge-pattern-solid{stroke-dasharray:0;}#mermaid-svg .edge-thickness-invisible{stroke-width:0;fill:none;}#mermaid-svg .edge-pattern-dashed{stroke-dasharray:3;}#mermaid-svg .edge-pattern-dotted{stroke-dasharray:2;}#mermaid-svg .marker{fill:lightgrey;stroke:lightgrey;}#mermaid-svg .marker.cross{stroke:lightgrey;}#mermaid-svg svg{font-family:"trebuchet ms",verdana,arial,sans-serif;font-size:16px;}#mermaid-svg p{margin:0;}#mermaid-svg .commit-id,#mermaid-svg .commit-msg,#mermaid-svg .branch-label{fill:lightgrey;color:lightgrey;font-family:'trebuchet ms',verdana,arial,sans-serif;font-family:var(--mermaid-font-family);}#mermaid-svg .branch-label0{fill:#2c2c2c;}#mermaid-svg .commit0{stroke:hsl(180, 1.5873015873%, 48.3529411765%);fill:hsl(180, 1.5873015873%, 48.3529411765%);}#mermaid-svg .commit-highlight0{stroke:rgb(133.6571428571, 129.7428571428, 129.7428571428);fill:rgb(133.6571428571, 129.7428571428, 129.7428571428);}#mermaid-svg .label0{fill:hsl(180, 1.5873015873%, 48.3529411765%);}#mermaid-svg .arrow0{stroke:hsl(180, 1.5873015873%, 48.3529411765%);}#mermaid-svg .branch-label1{fill:lightgrey;}#mermaid-svg .commit1{stroke:hsl(321.6393442623, 65.5913978495%, 38.2352941176%);fill:hsl(321.6393442623, 65.5913978495%, 38.2352941176%);}#mermaid-svg .commit-highlight1{stroke:rgb(93.5483870969, 221.4516129033, 139.677419355);fill:rgb(93.5483870969, 221.4516129033, 139.677419355);}#mermaid-svg .label1{fill:hsl(321.6393442623, 65.5913978495%, 38.2352941176%);}#mermaid-svg .arrow1{stroke:hsl(321.6393442623, 65.5913978495%, 38.2352941176%);}#mermaid-svg .branch-label2{fill:lightgrey;}#mermaid-svg .commit2{stroke:hsl(194.4, 16.5562913907%, 49.6078431373%);fill:hsl(194.4, 16.5562913907%, 49.6078431373%);}#mermaid-svg .commit-highlight2{stroke:rgb(149.4437086091, 117.6092715231, 107.5562913906);fill:rgb(149.4437086091, 117.6092715231, 107.5562913906);}#mermaid-svg .label2{fill:hsl(194.4, 16.5562913907%, 49.6078431373%);}#mermaid-svg .arrow2{stroke:hsl(194.4, 16.5562913907%, 49.6078431373%);}#mermaid-svg .branch-label3{fill:#2c2c2c;}#mermaid-svg .commit3{stroke:hsl(23.0769230769, 49.0566037736%, 40.7843137255%);fill:hsl(23.0769230769, 49.0566037736%, 40.7843137255%);}#mermaid-svg .commit-highlight3{stroke:rgb(99.9811320754, 162.7735849057, 202.0188679245);fill:rgb(99.9811320754, 162.7735849057, 202.0188679245);}#mermaid-svg .label3{fill:hsl(23.0769230769, 49.0566037736%, 40.7843137255%);}#mermaid-svg .arrow3{stroke:hsl(23.0769230769, 49.0566037736%, 40.7843137255%);}#mermaid-svg .branch-label4{fill:lightgrey;}#mermaid-svg .commit4{stroke:hsl(0, 83.3333333333%, 43.5294117647%);fill:hsl(0, 83.3333333333%, 43.5294117647%);}#mermaid-svg .commit-highlight4{stroke:rgb(51.5000000001, 236.5, 236.5);fill:rgb(51.5000000001, 236.5, 236.5);}#mermaid-svg .label4{fill:hsl(0, 83.3333333333%, 43.5294117647%);}#mermaid-svg .arrow4{stroke:hsl(0, 83.3333333333%, 43.5294117647%);}#mermaid-svg .branch-label5{fill:lightgrey;}#mermaid-svg .commit5{stroke:hsl(289.1666666667, 100%, 24.1176470588%);fill:hsl(289.1666666667, 100%, 24.1176470588%);}#mermaid-svg .commit-highlight5{stroke:rgb(154.2083333334, 255, 132.0000000001);fill:rgb(154.2083333334, 255, 132.0000000001);}#mermaid-svg .label5{fill:hsl(289.1666666667, 100%, 24.1176470588%);}#mermaid-svg .arrow5{stroke:hsl(289.1666666667, 100%, 24.1176470588%);}#mermaid-svg .branch-label6{fill:lightgrey;}#mermaid-svg .commit6{stroke:hsl(35.1315789474, 98.7012987013%, 40.1960784314%);fill:hsl(35.1315789474, 98.7012987013%, 40.1960784314%);}#mermaid-svg .commit-highlight6{stroke:rgb(51.331168831, 135.1948051946, 253.6688311688);fill:rgb(51.331168831, 135.1948051946, 253.6688311688);}#mermaid-svg .label6{fill:hsl(35.1315789474, 98.7012987013%, 40.1960784314%);}#mermaid-svg .arrow6{stroke:hsl(35.1315789474, 98.7012987013%, 40.1960784314%);}#mermaid-svg .branch-label7{fill:lightgrey;}#mermaid-svg .commit7{stroke:hsl(106.1538461538, 84.4155844156%, 35.0980392157%);fill:hsl(106.1538461538, 84.4155844156%, 35.0980392157%);}#mermaid-svg .commit-highlight7{stroke:rgb(206.1818181817, 89.948051948, 241.051948052);fill:rgb(206.1818181817, 89.948051948, 241.051948052);}#mermaid-svg .label7{fill:hsl(106.1538461538, 84.4155844156%, 35.0980392157%);}#mermaid-svg .arrow7{stroke:hsl(106.1538461538, 84.4155844156%, 35.0980392157%);}#mermaid-svg .branch{stroke-width:1;stroke:lightgrey;stroke-dasharray:2;}#mermaid-svg .commit-label{font-size:10px;fill:rgb(183.8476190475, 181.5523809523, 181.5523809523);}#mermaid-svg .commit-label-bkg{font-size:10px;fill:hsl(180, 1.5873015873%, 28.3529411765%);opacity:0.5;}#mermaid-svg .tag-label{font-size:10px;fill:#e0dfdf;}#mermaid-svg .tag-label-bkg{fill:#1f2020;stroke:#cccccc;}#mermaid-svg .tag-hole{fill:#ccc;}#mermaid-svg .commit-merge{stroke:#1f2020;fill:#1f2020;}#mermaid-svg .commit-reverse{stroke:#1f2020;fill:#1f2020;stroke-width:3;}#mermaid-svg .commit-highlight-inner{stroke:#1f2020;fill:#1f2020;}#mermaid-svg .arrow{stroke-width:8;stroke-linecap:round;fill:none;}#mermaid-svg .gitTitleText{text-anchor:middle;font-size:18px;fill:#ccc;}#mermaid-svg :root{--mermaid-font-family:"trebuchet ms",verdana,arial,sans-serif;}</style><g/><g class="commit-bullets"/><g class="commit-labels"/><g><line x1="0" y1="0" x2="450" y2="0" class="branch branch0"/><rect class="branchLabelBkg label0" rx="4" ry="4" x="-98.9375" y="-0.5" width="82.9375" height="21" transform="translate(-19, -8.5)"/><g class="branchLabel"><g class="label branch-label0" transform="translate(-108.9375, -9.5)"><text><tspan xml:space="preserve" dy="1em" x="0" class="row">feat/login</tspan></text></g></g><line x1="0" y1="90" x2="450" y2="90" class="branch branch1"/><rect class="branchLabelBkg label1" rx="4" ry="4" x="-68.6875" y="-0.5" width="52.6875" height="21" transform="translate(-19, 81.5)"/><g class="branchLabel"><g class="label branch-label1" transform="translate(-78.6875, 80.5)"><text><tspan xml:space="preserve" dy="1em" x="0" class="row">main</tspan></text></g></g></g><g class="commit-arrows"><path d="M 10 90 L 60 90" class="arrow arrow1"/><path d="M 60 90 L 60 20 A 20 20, 0, 0, 1, 80 0 L 110 0" class="arrow arrow0"/><path d="M 110 0 L 160 0" class="arrow arrow0"/><path d="M 160 0 L 210 0" class="arrow arrow0"/><path d="M 210 0 L 260 0" class="arrow arrow0"/><path d="M 260 0 L 310 0" class="arrow arrow0"/><path d="M 310 0 L 360 0" class="arrow arrow0"/><path d="M 360 0 L 410 0" class="arrow arrow0"/></g><g class="commit-bullets"><circle cx="10" cy="90" r="10" class="commit 0-86fdd90 commit1"/><circle cx="60" cy="90" r="10" class="commit 1-e57a687 commit1"/><circle cx="110" cy="0" r="10" class="commit 3f72afe commit0"/><circle cx="160" cy="0" r="10" class="commit 76c6b73 commit0"/><circle cx="210" cy="0" r="10" class="commit f868fb5 commit0"/><circle cx="260" cy="0" r="10" class="commit b63036d commit0"/><circle cx="310" cy="0" r="10" class="commit 5feb155 commit0"/><circle cx="360" cy="0" r="10" class="commit 6dceaca commit0"/><circle cx="410" cy="0" r="10" class="commit a85d29b commit0"/></g><g class="commit-labels"><g transform="translate(-28.581464843750002, 25.46236328125) rotate(-45, 0, 90)"><rect class="commit-label-bkg" x="-14.73876953125" y="103.5" width="49.4775390625" height="15"/><text x="-12.73876953125" y="115" class="commit-label">0-86fdd90</text></g><g transform="translate(-29.639082031250002, 26.40865234375) rotate(-45, 50, 90)"><rect class="commit-label-bkg" x="33.86962890625" y="103.5" width="52.2607421875" height="15"/><text x="35.86962890625" y="115" class="commit-label">1-e57a687</text></g><g transform="translate(-24.1450390625, 21.492929687500002) rotate(-45, 100, 0)"><rect class="commit-label-bkg" x="91.0986328125" y="13.5" width="37.802734375" height="15"/><text x="93.0986328125" y="25" class="commit-label">3f72afe</text></g><polygon class="tag-label-bkg" points="&#10;      95,-17.2  &#10;      95,-21.2&#10;      103,-26.7&#10;      117,-26.7&#10;      117,-11.7&#10;      103,-11.7"/><circle cy="-19.2" cx="99" r="1.5" class="tag-hole"/><text y="-16" class="tag-label" x="107">1</text><g transform="translate(-26.04689453125, 23.194589843750002) rotate(-45, 150, 0)"><rect class="commit-label-bkg" x="138.59619140625" y="13.5" width="42.8076171875" height="15"/><text x="140.59619140625" y="25" class="commit-label">76c6b73</text></g><polygon class="tag-label-bkg" points="&#10;      145,-17.2  &#10;      145,-21.2&#10;      153,-26.7&#10;      167,-26.7&#10;      167,-11.7&#10;      153,-11.7"/><circle cy="-19.2" cx="149" r="1.5" class="tag-hole"/><text y="-16" class="tag-label" x="157">2</text><g transform="translate(-24.1450390625, 21.492929687500002) rotate(-45, 200, 0)"><rect class="commit-label-bkg" x="191.0986328125" y="13.5" width="37.802734375" height="15"/><text x="193.0986328125" y="25" class="commit-label">f868fb5</text></g><polygon class="tag-label-bkg" points="&#10;      195,-17.2  &#10;      195,-21.2&#10;      203,-26.7&#10;      217,-26.7&#10;      217,-11.7&#10;      203,-11.7"/><circle cy="-19.2" cx="199" r="1.5" class="tag-hole"/><text y="-16" class="tag-label" x="207">3</text><g transform="translate(-26.09625, 23.238750000000003) rotate(-45, 250, 0)"><rect class="commit-label-bkg" x="238.53125" y="13.5" width="42.9375" height="15"/><text x="240.53125" y="25" class="commit-label">b63036d</text></g><polygon class="tag-label-bkg" points="&#10;      245,-17.2  &#10;      245,-21.2&#10;      253,-26.7&#10;      267,-26.7&#10;      267,-11.7&#10;      253,-11.7"/><circle cy="-19.2" cx="249" r="1.5" class="tag-hole"/><text y="-16" class="tag-label" x="257">4</text><g transform="translate(-25.20265625, 22.439218750000002) rotate(-45, 300, 0)"><rect class="commit-label-bkg" x="289.70703125" y="13.5" width="40.5859375" height="15"/><text x="291.70703125" y="25" class="commit-label">5feb155</text></g><polygon class="tag-label-bkg" points="&#10;      295,-17.2  &#10;      295,-21.2&#10;      303,-26.7&#10;      317,-26.7&#10;      317,-11.7&#10;      303,-11.7"/><circle cy="-19.2" cx="299" r="1.5" class="tag-hole"/><text y="-16" class="tag-label" x="307">5</text><g transform="translate(-25.833515625, 23.003671875000002) rotate(-45, 350, 0)"><rect class="commit-label-bkg" x="338.876953125" y="13.5" width="42.24609375" height="15"/><text x="340.876953125" y="25" class="commit-label">6dceaca</text></g><polygon class="tag-label-bkg" points="&#10;      345,-17.2  &#10;      345,-21.2&#10;      353,-26.7&#10;      367,-26.7&#10;      367,-11.7&#10;      353,-11.7"/><circle cy="-19.2" cx="349" r="1.5" class="tag-hole"/><text y="-16" class="tag-label" x="357">6</text><g transform="translate(-26.2602734375, 23.385507812500002) rotate(-45, 400, 0)"><rect class="commit-label-bkg" x="388.3154296875" y="13.5" width="43.369140625" height="15"/><text x="390.3154296875" y="25" class="commit-label">a85d29b</text></g><polygon class="tag-label-bkg" points="&#10;      395,-17.2  &#10;      395,-21.2&#10;      403,-26.7&#10;      417,-26.7&#10;      417,-11.7&#10;      403,-11.7"/><circle cy="-19.2" cx="399" r="1.5" class="tag-hole"/><text y="-16" class="tag-label" x="407">7</text></g></svg>