<svg id="mermaid-svg" width="100%" xmlns="http://www.w3.org/2000/svg" style="max-width: 1037.3125px;" viewBox="-179.3125 -18 1037.3125 353.96710205078125" role="graphics-document document" aria-roledescription="gitGraph" xmlns:xlink="http://www.w3.org/1999/xlink"><style xmlns="http://www.w3.org/1999/xhtml">@import url("https://cdnjs.cloudflare.com/ajax/libs/font-awesome/6.7.2/css/all.min.css");</style><style>#mermaid-svg{font-family:"trebuchet ms",verdana,arial,sans-serif;font-size:16px;fill:#ccc;}@keyframes edge-animation-frame{from{stroke-dashoffset:0;}}@keyframes dash{to{stroke-dashoffset:0;}}#mermaid-svg .edge-animation-slow{stroke-dasharray:9,5!important;stroke-dashoffset:900;animation:dash 50s linear infinite;stroke-linecap:round;}#mermaid-svg .edge-animation-fast{stroke-dasharray:9,5!important;stroke-dashoffset:900;animation:dash 20s linear infinite;stroke-linecap:round;}#mermaid-svg .error-icon{fill:#a44141;}#mermaid-svg .error-text{fill:#ddd;stroke:#ddd;}#mermaid-svg .edge-thickness-normal{stroke-width:1px;}#mermaid-svg .edge-thickness-thick{stroke-width:3.5px;}#mermaid-svg .edge-pattern-solid{stroke-dasharray:0;}#mermaid-svg .edge-thickness-invisible{stroke-width:0;fill:none;}#mermaid-svg .edge-pattern-dashed{stroke-dasharray:3;}#mermaid-svg .edge-pattern-dotted{stroke-dasharray:2;}#mermaid-svg .marker{fill:lightgrey;stroke:lightgrey;}#mermaid-svg .marker.cross{stroke:lightgrey;}#mermaid-svg svg{font-family:"trebuchet ms",verdana,arial,sans-serif;font-size:16px;}#mermaid-svg p{margin:0;}#mermaid-svg .commit-id,#mermaid-svg .commit-msg,#mermaid-svg .branch-label{fill:lightgrey;color:lightgrey;font-family:'trebuchet ms',verdana,arial,sans-serif;font-family:var(--mermaid-font-family);}#mermaid-svg .branch-label0{fill:#2c2c2c;}#mermaid-svg .commit0{stroke:hsl(180, 1.5873015873%, 48.3529411765%);fill:hsl(180, 1.5873015873%, 48.3529411765%);}#mermaid-svg .commit-highlight0{stroke:rgb(133.6571428571, 129.7428571428, 129.7428571428);fill:rgb(133.6571428571, 129.7428571428, 129.7428571428);}#mermaid-svg .label0{fill:hsl(180, 1.5873015873%, 48.3529411765%);}#mermaid-svg .arrow0{stroke:hsl(180, 1.5873015873%, 48.3529411765%);}#mermaid-svg .branch-label1{fill:lightgrey;}#mermaid-svg .commit1{stroke:hsl(321.6393442623, 65.5913978495%, 38.2352941176%);fill:hsl(321.6393442623, 65.5913978495%, 38.2352941176%);}#mermaid-svg .commit-highlight1{stroke:rgb(93.5483870969, 221.4516129033, 139.677419355);fill:rgb(93.5483870969, 221.4516129033, 139.677419355);}#mermaid-svg .label1{fill:hsl(321.6393442623, 65.5913978495%, 38.2352941176%);}#mermaid-svg .arrow1{stroke:hsl(321.6393442623, 65.5913978495%, 38.2352941176%);}#mermaid-svg .branch-label2{fill:lightgrey;}#mermaid-svg .commit2{stroke:hsl(194.4, 16.5562913907%, 49.6078431373%);fill:hsl(194.4, 16.5562913907%, 49.6078431373%);}#mermaid-svg .commit-highlight2{stroke:rgb(149.4437086091, 117.6092715231, 107.5562913906);fill:rgb(149.4437086091, 117.6092715231, 107.5562913906);}#mermaid-svg .label2{fill:hsl(194.4, 16.5562913907%, 49.6078431373%);}#mermaid-svg .arrow2{stroke:hsl(194.4, 16.5562913907%, 49.6078431373%);}#mermaid-svg .branch-label3{fill:#2c2c2c;}#mermaid-svg .commit3{stroke:hsl(23.0769230769, 49.0566037736%, 40.7843137255%);fill:hsl(23.0769230769, 49.0566037736%, 40.7843137255%);}#mermaid-svg .commit-highlight3{stroke:rgb(99.9811320754, 162.7735849057, 202.0188679245);fill:rgb(99.9811320754, 162.7735849057, 202.0188679245);}#mermaid-svg .label3{fill:hsl(23.0769230769, 49.0566037736%, 40.7843137255%);}#mermaid-svg .arrow3{stroke:hsl(23.0769230769, 49.0566037736%, 40.7843137255%);}#mermaid-svg .branch-label4{fill:lightgrey;}#mermaid-svg .commit4{stroke:hsl(0, 83.3333333333%, 43.5294117647%);fill:hsl(0, 83.3333333333%, 43.5294117647%);}#mermaid-svg .commit-highlight4{stroke:rgb(51.5000000001, 236.5, 236.5);fill:rgb(51.5000000001, 236.5, 236.5);}#mermaid-svg .label4{fill:hsl(0, 83.3333333333%, 43.5294117647%);}#mermaid-svg .arrow4{stroke:hsl(0, 83.3333333333%, 43.5294117647%);}#mermaid-svg .branch-label5{fill:lightgrey;}#mermaid-svg .commit5{stroke:hsl(289.1666666667, 100%, 24.1176470588%);fill:hsl(289.1666666667, 100%, 24.1176470588%);}#mermaid-svg .commit-highlight5{stroke:rgb(154.2083333334, 255, 132.0000000001);fill:rgb(154.2083333334, 255, 132.0000000001);}#mermaid-svg .label5{fill:hsl(289.1666666667, 100%, 24.1176470588%);}#mermaid-svg .arrow5{stroke:hsl(289.1666666667, 100%, 24.1176470588%);}#mermaid-svg .branch-label6{fill:lightgrey;}#mermaid-svg .commit6{stroke:hsl(35.1315789474, 98.7012987013%, 40.1960784314%);fill:hsl(35.1315789474, 98.7012987013%, 40.1960784314%);}#mermaid-svg .commit-highlight6{stroke:rgb(51.331168831, 135.1948051946, 253.6688311688);fill:rgb(51.331168831, 135.1948051946, 253.6688311688);}#mermaid-svg .label6{fill:hsl(35.1315789474, 98.7012987013%, 40.1960784314%);}#mermaid-svg .arrow6{stroke:hsl(35.1315789474, 98.7012987013%, 40.1960784314%);}#mermaid-svg .branch-label7{fill:lightgrey;}#mermaid-svg .commit7{stroke:hsl(106.1538461538, 84.4155844156%, 35.0980392157%);fill:hsl(106.1538461538, 84.4155844156%, 35.0980392157%);}#mermaid-svg .commit-highlight7{stroke:rgb(206.1818181817, 89.948051948, 241.051948052);fill:rgb(206.1818181817, 89.948051948, 241.051948052);}#mermaid-svg .label7{fill:hsl(106.1538461538, 84.4155844156%, 35.0980392157%);}#mermaid-svg .arrow7{stroke:hsl(106.1538461538, 84.4155844156%, 35.0980392157%);}#mermaid-svg .branch{stroke-width:1;stroke:lightgrey;stroke-dasharray:2;}#mermaid-svg .commit-label{font-size:10px;fill:rgb(183.8476190475, 181.5523809523, 181.5523809523);}#mermaid-svg .commit-label-bkg{font-size:10px;fill:hsl(180, 1.5873015873%, 28.3529411765%);opacity:0.5;}#mermaid-svg .tag-label{font-size:10px;fill:#e0dfdf;}#mermaid-svg .tag-label-bkg{fill:#1f2020;stroke:#cccccc;}#mermaid-svg .tag-hole{fill:#ccc;}#mermaid-svg .commit-merge{stroke:#1f2020;fill:#1f2020;}#mermaid-svg .commit-reverse{stroke:#1f2020;fill:#1f2020;stroke-width:3;}#mermaid-svg .commit-highlight-inner{stroke:#1f2020;fill:#1f2020;}#mermaid-svg .arrow{stroke-width:8;stroke-linecap:round;fill:none;}#mermaid-svg .gitTitleText{text-anchor:middle;font-size:18px;fill:#ccc;}#mermaid-svg :root{--mermaid-font-family:"trebuchet ms",verdana,arial,sans-serif;}</style><g/><g class="commit-bullets"/><g class="commit-labels"/><g><line x1="0" y1="0" x2="850" y2="0" class="branch branch0"/><rect class="branchLabelBkg label0" rx="4" ry="4" x="-152.3125" y="-0.5" width="136.3125" height="21" transform="translate(-19, -8.5)"/><g class="branchLabel"><g class="label branch-label0" transform="translate(-162.3125, -9.5)"><text><tspan xml:space="preserve" dy="1em" x="0" class="row">hotfix/dashboard</tspan></text></g></g><line x1="0" y1="90" x2="850" y2="90" class="branch branch1"/><rect class="branchLabelBkg label1" rx="4" ry="4" x="-68.6875" y="-0.5" width="52.6875" height="21" transform="translate(-19, 81.5)"/><g class="branchLabel"><g class="label branch-label1" transform="translate(-78.6875, 80.5)"><text><tspan xml:space="preserve" dy="1em" x="0" class="row">main</tspan></text></g></g><line x1="0" y1="180" x2="850" y2="180" class="branch branch2"/><rect class="branchLabelBkg label2" rx="4" ry="4" x="-90.1484375" y="-0.5" width="74.1484375" height="21" transform="translate(-19, 171.5)"/><g class="branchLabel"><g class="label branch-label2" transform="translate(-100.1484375, 170.5)"><text><tspan xml:space="preserve" dy="1em" x="0" class="row">develop</tspan></text></g></g><line x1="0" y1="270" x2="850" y2="270" class="branch branch3"/><rect class="branchLabelBkg label3" rx="4" ry="4" x="-122.0625" y="-0.5" width="106.0625" height="21" transform="translate(-19, 261.5)"/><g class="branchLabel"><g class="label branch-label3" transform="translate(-132.0625, 260.5)"><text><tspan xml:space="preserve" dy="1em" x="0" class="row">feature/login</tspan></text></g></g></g><g class="commit-arrows"><path d="M 10 90 L 60 90" class="arrow arrow1"/><path d="M 60 90 L 60 160 A 20 20, 0, 0, 0, 80 180 L 110 180" class="arrow arrow2"/><path d="M 110 180 L 110 250 A 20 20, 0, 0, 0, 130 270 L 160 270" class="arrow arrow3"/><path d="M 160 270 L 210 270" class="arrow arrow3"/><path d="M 110 180 L 260 180" class="arrow arrow2"/><path d="M 210 270 L 240 270 A 20 20, 0, 0, 0, 260 250 L 260 180" class="arrow arrow3"/><path d="M 260 180 L 310 180" class="arrow arrow2"/><path d="M 310 180 L 360 180" class="arrow arrow2"/><path d="M 60 90 L 410 90" class="arrow arrow1"/><path d="M 360 180 L 390 180 A 20 20, 0, 0, 0, 410 160 L 410 90" class="arrow arrow2"/><path d="M 410 90 L 410 20 A 20 20, 0, 0, 1, 430 0 L 460 0" class="arrow arrow0"/><path d="M 460 0 L 510 0" class="arrow arrow0"/><path d="M 510 0 L 560 0" class="arrow arrow0"/><path d="M 410 90 L 610 90" class="arrow arrow1"/><path d="M 560 0 L 590 0 A 20 20, 0, 0, 1, 610 20 L 610 90" class="arrow arrow0"/><path d="M 360 180 L 660 180" class="arrow arrow2"/><path d="M 610 90 L 640 90 A 20 20, 0, 0, 1, 660 110 L 660 180" class="arrow arrow1"/><path d="M 660 180 L 710 180" class="arrow arrow2"/><path d="M 710 180 L 760 180" class="arrow arrow2"/><path d="M 610 90 L 810 90" class="arrow arrow1"/><path d="M 760 180 L 790 180 A 20 20, 0, 0, 0, 810 160 L 810 90" class="arrow arrow2"/></g><g class="commit-bullets"><circle cx="10" cy="90" r="10" class="commit 🔵 v0.9 commit1"/><circle cx="60" cy="90" r="10" class="commit 🔵 v1.0 commit1"/><circle cx="110" cy="180" r="10" class="commit 🟡 Dev 1 commit2"/><circle cx="160" cy="270" r="10" class="commit 3-d16e247 commit3"/><circle cx="210" cy="270" r="10" class="commit 4-fd49c34 commit3"/><circle cx="260" cy="180" r="9" class="commit 5-c2f777c commit2"/><circle cx="260" cy="180" r="6" class="commit commit-merge 5-c2f777c commit2"/><circle cx="310" cy="180" r="10" class="commit 🟡 Dev 2 commit2"/><circle cx="360" cy="180" r="10" class="commit 🟡 Dev 3 commit2"/><circle cx="410" cy="90" r="9" class="commit ⚡️ v1.1 commit1"/><circle cx="410" cy="90" r="6" class="commit commit-merge ⚡️ v1.1 commit1"/><circle cx="460" cy="0" r="10" class="commit 9-44c71e7 commit0"/><circle cx="510" cy="0" r="10" class="commit 10-56f72c3 commit0"/><circle cx="560" cy="0" r="10" class="commit 11-97a63e5 commit0"/><circle cx="610" cy="90" r="9" class="commit 🔥 Hotfix aplicado commit1"/><circle cx="610" cy="90" r="6" class="commit commit-merge 🔥 Hotfix aplicado commit1"/><circle cx="660" cy="180" r="9" class="commit ⬅️fix → develop commit2"/><circle cx="660" cy="180" r="6" class="commit commit-merge ⬅️fix → develop commit2"/><circle cx="710" cy="180" r="10" class="commit 14-ed58442 commit2"/><circle cx="760" cy="180" r="10" class="commit 15-2a819e8 commit2"/><circle cx="810" cy="90" r="9" class="commit ⚡️ v1.2 commit1"/><circle cx="810" cy="90" r="6" class="commit commit-merge ⚡️ v1.2 commit1"/></g><g class="commit-labels"><g transform="translate(-24.26490234375, 21.60017578125) rotate(-45, 0, 90)"><rect class="commit-label-bkg" x="-9.05908203125" y="103.5" width="38.1181640625" height="17"/><text x="-7.05908203125" y="115" class="commit-label">🔵 v0.9</text></g><g transform="translate(-24.26490234375, 21.60017578125) rotate(-45, 50, 90)"><rect class="commit-label-bkg" x="40.94091796875" y="103.5" width="38.1181640625" height="17"/><text x="42.94091796875" y="115" class="commit-label">🔵 v1.0</text></g><g transform="translate(-27.009140625, 24.055546874999997) rotate(-45, 100, 180)"><rect class="commit-label-bkg" x="87.330078125" y="193.5" width="45.33984375" height="17"/><text x="89.330078125" y="205" class="commit-label">🟡 Dev 1</text></g><g transform="translate(-29.639082031250002, 26.40865234375) rotate(-45, 150, 270)"><rect class="commit-label-bkg" x="133.86962890625" y="283.5" width="52.2607421875" height="15"/><text x="135.86962890625" y="295" class="commit-label">3-d16e247</text></g><g transform="translate(-28.368085937500002, 25.2714453125) rotate(-45, 200, 270)"><rect class="commit-label-bkg" x="185.5419921875" y="283.5" width="48.916015625" height="15"/><text x="187.5419921875" y="295" class="commit-label">4-fd49c34</text></g><g transform="translate(-27.009140625, 24.055546874999997) rotate(-45, 300, 180)"><rect class="commit-label-bkg" x="287.330078125" y="193.5" width="45.33984375" height="17"/><text x="289.330078125" y="205" class="commit-label">🟡 Dev 2</text></g><g transform="translate(-27.009140625, 24.055546874999997) rotate(-45, 350, 180)"><rect class="commit-label-bkg" x="337.330078125" y="193.5" width="45.33984375" height="17"/><text x="339.330078125" y="205" class="commit-label">🟡 Dev 3</text></g><g transform="translate(-24.26490234375, 21.60017578125) rotate(-45, 400, 90)"><rect class="commit-label-bkg" x="390.94091796875" y="103.5" width="38.1181640625" height="17"/><text x="392.94091796875" y="115" class="commit-label">⚡️ v1.1</text></g><polygon class="tag-label-bkg" points="&#10;      388.330078125,72.8  &#10;      388.330078125,68.8&#10;      396.330078125,63.3&#10;      423.669921875,63.3&#10;      423.669921875,78.3&#10;      396.330078125,78.3"/><circle cy="70.8" cx="392.330078125" r="1.5" class="tag-hole"/><text y="74" class="tag-label" x="400.330078125">v1.1</text><g transform="translate(-29.425703125000002, 26.217734375) rotate(-45, 450, 0)"><rect class="commit-label-bkg" x="434.150390625" y="13.5" width="51.69921875" height="15"/><text x="436.150390625" y="25" class="commit-label">9-44c71e7</text></g><g transform="translate(-30.481464843749997, 27.16236328125) rotate(-45, 500, 0)"><rect class="commit-label-bkg" x="482.76123046875" y="13.5" width="54.4775390625" height="15"/><text x="484.76123046875" y="25" class="commit-label">10-56f72c3</text></g><g transform="translate(-31.752460937499997, 28.2995703125) rotate(-45, 550, 0)"><rect class="commit-label-bkg" x="531.0888671875" y="13.5" width="57.822265625" height="15"/><text x="533.0888671875" y="25" class="commit-label">11-97a63e5</text></g><g transform="translate(-42.00689453125, 37.474589843749996) rotate(-45, 600, 90)"><rect class="commit-label-bkg" x="567.59619140625" y="103.5" width="84.8076171875" height="17"/><text x="569.59619140625" y="115" class="commit-label">🔥 Hotfix aplicado</text></g><g transform="translate(-39.04927734375, 34.82830078125) rotate(-45, 650, 180)"><rect class="commit-label-bkg" x="621.48779296875" y="193.5" width="77.0244140625" height="17"/><text x="623.48779296875" y="205" class="commit-label">⬅️fix → develop</text></g><g transform="translate(-31.752460937499997, 28.2995703125) rotate(-45, 700, 180)"><rect class="commit-label-bkg" x="681.0888671875" y="193.5" width="57.822265625" height="15"/><text x="683.0888671875" y="205" class="commit-label">14-ed58442</text></g><g transform="translate(-31.752460937499997, 28.2995703125) rotate(-45, 750, 180)"><rect class="commit-label-bkg" x="731.0888671875" y="193.5" width="57.822265625" height="15"/><text x="733.0888671875" y="205" class="commit-label">15-2a819e8</text></g><g transform="translate(-24.26490234375, 21.60017578125) rotate(-45, 800, 90)"><rect class="commit-label-bkg" x="790.94091796875" y="103.5" width="38.1181640625" height="17"/><text x="792.94091796875" y="115" class="commit-label">⚡️ v1.2</text></g><polygon class="tag-label-bkg" points="&#10;      788.330078125,72.8  &#10;      788.330078125,68.8&#10;      796.330078125,63.3&#10;      823.669921875,63.3&#10;      823.669921875,78.3&#10;      796.330078125,78.3"/><circle cy="70.8" cx="792.330078125" r="1.5" class="tag-hole"/><text y="74" class="tag-label" x="800.330078125">v1.2</text></g></svg>